<svg t="1598069470252" class="icon" viewBox="0 0 1025 1024" version="1.1" xmlns="http://www.w3.org/2000/svg" p-id="2364" width="64" height="64"><path d="M614.962034 350.621884c-5.90799-3.038816-13.269007-0.907219-16.425835 4.75737-3.186332 5.657214-0.936723 12.715824 4.94914 15.75464 63.202956 32.534513 102.471545 95.412935 102.471545 164.132966 0 102.670691-87.019311 186.193888-193.94582 186.193888-106.94126 0-193.953196-83.523197-193.953196-186.193888 0-68.919176 39.460359-131.900859 102.958346-164.361614 5.90799-3.024065 8.150224-10.067923 5.000771-15.75464-3.156829-5.657214-10.480966-7.810938-16.388957-4.801625-71.426937 36.532179-115.799558 107.391182-115.799558 184.910504 0 115.4824 97.876441 209.45706 218.189969 209.45706 120.284025 0 218.189969-93.97466 218.189969-209.45706C730.193657 457.968811 686.04231 387.198317 614.962034 350.621884L614.962034 350.621884zM512.003688 546.913198c6.704573 0 12.133138-5.199916 12.133138-11.646338l0-244.359194c0-6.424294-5.421189-11.631586-12.133138-11.631586s-12.133138 5.214668-12.133138 11.631586l0 244.359194C499.87055 541.713281 505.299115 546.913198 512.003688 546.913198L512.003688 546.913198zM512.003688 546.913198" p-id="2365"></path><path d="M512.011064 0C229.231494 0 0 229.231494 0 512.011064c0 282.757442 229.231494 511.988936 512.011064 511.988936s512.003688-229.224118 512.003688-511.988936C1024.014752 229.231494 794.790633 0 512.011064 0zM512.011064 999.033025c-268.979508 0-487.029337-218.04983-487.029337-487.021962 0-268.979508 218.04983-487.029337 487.029337-487.029337 268.994259 0 487.036713 218.04983 487.036713 487.029337C999.047777 780.983196 781.005323 999.033025 512.011064 999.033025z" p-id="2366"></path></svg>