<svg t="1598055007953" class="icon" viewBox="0 0 1024 1024" version="1.1" xmlns="http://www.w3.org/2000/svg" p-id="7288" width="64" height="64"><path d="M213.9 15.2H810c132.5 0 198.7 66.2 198.7 198.7V810c0 132.5-66.2 198.7-198.7 198.7H213.9c-132.5 0-198.7-66.2-198.7-198.7V213.9c0-132.5 66.3-198.7 198.7-198.7z" fill="#FFE43C" p-id="7289"></path><path d="M810 15.2H533.6C292.6 74 97.6 250.5 15.2 484.4V810c0 109.7 89 198.7 198.7 198.7H810c109.7 0 198.7-89 198.7-198.7V213.9c0-109.8-88.9-198.7-198.7-198.7z" fill="#00F5D4" p-id="7290"></path><path d="M810 15.2h-3.7c-395.5 85.5-646.8 475.5-561.3 871 9.1 41.9 21.8 82.8 38 122.5h527c109.7 0 198.7-89 198.7-198.7V213.9c0-109.8-88.9-198.7-198.7-198.7z" fill="#01BEFF" p-id="7291"></path><path d="M977.8 107.3c-14.2-22.4-32.9-42-55.4-57.4-259 120-424.8 379.5-424.7 664.9-0.1 101.1 20.8 201.2 61.4 293.8H810c18.7 0 36.8-2.6 53.9-7.4-65.2-99-105.6-236.7-105.6-388.9 0-227.8 90.7-423.1 219.5-505z" fill="#9A5CE5" p-id="7292"></path><path d="M1008.7 810V213.9c0-38.3-11-75.1-31-106.5-128.8 81.9-219.4 277.2-219.4 505 0 152.2 40.4 289.8 105.6 388.9 83.6-23.5 144.8-100.3 144.8-191.3z" fill="#F15BB5" p-id="7293"></path><path d="M852.6 711.1c-89.7 25.3-133.4 68.6-195 98.8 48.2 10.8 96.4 14.3 152.2 14.3 82.1 0 166.5-45 198.9-78.2v-33.7c-49.6-12.4-82.7-21.9-156.1-1.2zM163.4 686.2c-0.1 0-0.2-0.1-0.2-0.1-53.6-26.8-105-37.4-148-40.4v77.2c24.2-10.6 74.4-28.6 148.2-36.7zM547.9 841c45.7-4.9 79.8-16.5 109.7-31.1-33-7.4-66-18.1-101.5-33.5-85.9-37.4-174.8-96-325.7-94.2-24.2 0.3-46.4 1.8-67 4.1C303.2 756.1 408.1 855.9 547.9 841z" fill="#FFFFFF" opacity=".2" p-id="7294"></path><path d="M657.6 809.8c-29.9 14.6-64 26.2-109.7 31.1-139.8 15-244.7-84.8-384.4-154.7-73.9 8.1-124 26.1-148.2 36.6V810c0 132.5 66.2 198.7 198.7 198.7h596c132.5 0 198.7-66.2 198.7-198.7v-64.1c-32.4 33.2-116.8 78.2-198.9 78.2-55.8 0-104-3.5-152.2-14.3z" fill="#FFFFFF" opacity=".2" p-id="7295"></path><path d="M657.6 809.8c-29.9 14.6-64 26.2-109.7 31.1-139.8 15-244.7-84.8-384.4-154.7-73.9 8.1-124 26.1-148.2 36.6V810c0 132.5 66.2 198.7 198.7 198.7h596c132.5 0 198.7-66.2 198.7-198.7v-64.1c-32.4 33.2-116.8 78.2-198.9 78.2-55.8 0-104-3.5-152.2-14.3z" fill="#FFFFFF" opacity=".2" p-id="7296"></path><path d="M142 608.9m-18.8 0a18.8 18.8 0 1 0 37.6 0 18.8 18.8 0 1 0-37.6 0Z" fill="#FFFFFF" opacity=".5" p-id="7297"></path><path d="M935.2 458.1m-18.8 0a18.8 18.8 0 1 0 37.6 0 18.8 18.8 0 1 0-37.6 0Z" fill="#FFFFFF" opacity=".5" p-id="7298"></path><path d="MNaN NaNaNaN NaN NaN 1 0 NaN NaN NaN NaN NaN 1 0 NaN NaNZ" fill="#FFFFFF" p-id="7299"></path><path d="M332.1 67.6m-9.4 0a9.4 9.4 0 1 0 18.8 0 9.4 9.4 0 1 0-18.8 0Z" fill="#FFFFFF" p-id="7300"></path><path d="M107.6 340.2m-9.4 0a9.4 9.4 0 1 0 18.8 0 9.4 9.4 0 1 0-18.8 0Z" fill="#FFFFFF" p-id="7301"></path><path d="M977.8 306.3m-9.4 0a9.4 9.4 0 1 0 18.8 0 9.4 9.4 0 1 0-18.8 0Z" fill="#FFFFFF" opacity=".6" p-id="7302"></path><path d="M938.4 663.5m-15.5 0a15.5 15.5 0 1 0 31 0 15.5 15.5 0 1 0-31 0Z" fill="#FFFFFF" opacity=".8" p-id="7303"></path><path d="M495.126344 65.195045a15.5 15.5 0 1 0 4.966464-30.599579 15.5 15.5 0 1 0-4.966464 30.599579Z" fill="#FFFFFF" opacity=".8" p-id="7304"></path><path d="M512.9 235.4c-152.8 0.2-276.5 124.2-276.2 277 0.1 78.4 33.5 153.1 91.8 205.5v62c0 4.8 3.9 8.8 8.8 8.8h173.5c152.7 0 279.3-124.9 278.8-277.6-0.7-152.4-124.3-275.7-276.7-275.7z m-79.2 287.3c0 13.2-10.8 23.9-23.9 23.9-13.2 0-23.9-10.8-23.9-23.9v-21.3c0-13.2 10.8-23.9 23.9-23.9 13.2 0 23.9 10.8 23.9 23.9v21.3z m100 0c0 13.2-10.8 23.9-23.9 23.9-13.2 0-23.9-10.8-23.9-23.9v-21.3c0-13.2 10.8-23.9 23.9-23.9 13.2 0 23.9 10.8 23.9 23.9v21.3z m100 0c0 13.2-10.8 23.9-23.9 23.9-13.2 0-23.9-10.8-23.9-23.9v-21.3c0-13.2 10.8-23.9 23.9-23.9 13.2 0 23.9 10.8 23.9 23.9v21.3z" fill="#FFDEEB" p-id="7305"></path><path d="M478.3 237.7C326.8 257.1 219.6 395.6 239 547.2c8.4 65.8 40.2 126.4 89.5 170.7v63.6c0 4 3.2 7.2 7.2 7.2h108.1C596.5 788.7 744 664.8 744 512c-0.1-139.3-127.4-256.8-265.7-274.3z m-44.6 285c0 13.2-10.8 23.9-23.9 23.9-13.2 0-23.9-10.8-23.9-23.9v-21.3c0-13.2 10.8-23.9 23.9-23.9 13.2 0 23.9 10.8 23.9 23.9v21.3z m100 0c0 13.2-10.8 23.9-23.9 23.9-13.2 0-23.9-10.8-23.9-23.9v-21.3c0-13.2 10.8-23.9 23.9-23.9 13.2 0 23.9 10.8 23.9 23.9v21.3z m100 0c0 13.2-10.8 23.9-23.9 23.9-13.2 0-23.9-10.8-23.9-23.9v-21.3c0-13.2 10.8-23.9 23.9-23.9 13.2 0 23.9 10.8 23.9 23.9v21.3zM744 512z" fill="#FFFFFF" p-id="7306"></path></svg>